Latin-Mizra-Bold - Kerning, Without Production Names.ufo
<glyph name="ampersand" format="1">
  <advance width="580"/>
  <unicode hex="0026"/>
  <outline>
    <contour>
      <point x="262" y="-11"/>
      <point x="313" y="10"/>
      <point x="353" y="41" type="curve"/>
      <point x="412" y="-6" type="line"/>
      <point x="485" y="-6"/>
      <point x="533" y="0"/>
      <point x="580" y="15" type="curve"/>
      <point x="534" y="47"/>
      <point x="483" y="90"/>
      <point x="435" y="136" type="curve"/>
      <point x="471" y="191"/>
      <point x="499" y="251"/>
      <point x="534" y="294" type="curve"/>
      <point x="500" y="294"/>
      <point x="473" y="293"/>
      <point x="416" y="288" type="curve"/>
      <point x="413" y="249"/>
      <point x="404" y="213"/>
      <point x="389" y="182" type="curve"/>
      <point x="307" y="269"/>
      <point x="243" y="358"/>
      <point x="243" y="397" type="curve" smooth="yes"/>
      <point x="243" y="435"/>
      <point x="272" y="460"/>
      <point x="314" y="460" type="curve"/>
      <point x="360" y="437"/>
      <point x="405" y="399"/>
      <point x="436" y="358" type="curve"/>
      <point x="460" y="379"/>
      <point x="486" y="452"/>
      <point x="486" y="499" type="curve"/>
      <point x="439" y="521"/>
      <point x="384" y="533"/>
      <point x="325" y="533" type="curve" smooth="yes"/>
      <point x="185" y="533"/>
      <point x="107" y="481"/>
      <point x="107" y="389" type="curve" smooth="yes"/>
      <point x="107" y="359"/>
      <point x="121" y="320"/>
      <point x="146" y="277" type="curve"/>
      <point x="60" y="246"/>
      <point x="20" y="197"/>
      <point x="20" y="127" type="curve" smooth="yes"/>
      <point x="20" y="44"/>
      <point x="89" y="-11"/>
      <point x="193" y="-11" type="curve" smooth="yes"/>
    </contour>
    <contour>
      <point x="195" y="68"/>
      <point x="162" y="101"/>
      <point x="162" y="150" type="curve" smooth="yes"/>
      <point x="162" y="176"/>
      <point x="171" y="199"/>
      <point x="186" y="217" type="curve"/>
      <point x="218" y="174"/>
      <point x="259" y="128"/>
      <point x="305" y="84" type="curve"/>
      <point x="285" y="74"/>
      <point x="265" y="68"/>
      <point x="243" y="68" type="curve" smooth="yes"/>
    </contour>
  </outline>
</glyph>
<glyph name="quotesingle" format="1">
  <advance width="161"/>
  <unicode hex="0027"/>
  <outline>
    <contour>
      <point x="129" y="307" type="line"/>
      <point x="129" y="397"/>
      <point x="130" y="468"/>
      <point x="141" y="549" type="curve"/>
      <point x="96" y="549"/>
      <point x="67" y="544"/>
      <point x="30" y="530" type="curve"/>
      <point x="30" y="376" type="line"/>
      <point x="56" y="353"/>
      <point x="79" y="330"/>
      <point x="98" y="307" type="curve"/>
    </contour>
  </outline>
</glyph>
<glyph name="comma" format="1">
  <advance width="213"/>
  <unicode hex="002C"/>
  <outline>
    <contour>
      <point x="128" y="-56"/>
      <point x="175" y="26"/>
      <point x="183" y="117" type="curve"/>
      <point x="151" y="150" type="line"/>
      <point x="111" y="150"/>
      <point x="66" y="137"/>
      <point x="33" y="116" type="curve"/>
      <point x="45" y="89"/>
      <point x="51" y="57"/>
      <point x="51" y="20" type="curve" smooth="yes"/>
      <point x="51" y="-20"/>
      <point x="38" y="-59"/>
      <point x="15" y="-86" type="curve"/>
      <point x="47" y="-120" type="line"/>
    </contour>
  </outline>
</glyph>
<glyph name="three" format="1">
  <advance width="491"/>
  <unicode hex="0033"/>
  <outline>
    <contour>
      <point x="377" y="-11"/>
      <point x="461" y="49"/>
      <point x="461" y="160" type="curve" smooth="yes"/>
      <point x="461" y="235"/>
      <point x="397" y="298"/>
      <point x="308" y="312" type="curve"/>
      <point x="358" y="348" type="line" smooth="yes"/>
      <point x="417" y="390"/>
      <point x="444" y="429"/>
      <point x="444" y="471" type="curve" smooth="yes"/>
      <point x="444" y="500"/>
      <point x="431" y="529"/>
      <point x="410" y="546" type="curve"/>
      <point x="371" y="525"/>
      <point x="313" y="516"/>
      <point x="213" y="516" type="curve" smooth="yes"/>
      <point x="136" y="516"/>
      <point x="75" y="520"/>
      <point x="46" y="527" type="curve"/>
      <point x="46" y="477"/>
      <point x="59" y="417"/>
      <point x="77" y="379" type="curve"/>
      <point x="100" y="392"/>
      <point x="131" y="397"/>
      <point x="187" y="397" type="curve" smooth="yes"/>
      <point x="230" y="397"/>
      <point x="277" y="396"/>
      <point x="326" y="395" type="curve"/>
      <point x="180" y="290" type="line" smooth="yes"/>
      <point x="151" y="269"/>
      <point x="138" y="249"/>
      <point x="134" y="234" type="curve"/>
      <point x="134" y="222"/>
      <point x="167" y="204"/>
      <point x="189" y="204" type="curve"/>
      <point x="207" y="230"/>
      <point x="236" y="249"/>
      <point x="257" y="249" type="curve"/>
      <point x="295" y="234"/>
      <point x="317" y="201"/>
      <point x="317" y="160" type="curve" smooth="yes"/>
      <point x="317" y="101"/>
      <point x="276" y="67"/>
      <point x="204" y="67" type="curve" smooth="yes"/>
      <point x="139" y="67"/>
      <point x="80" y="90"/>
      <point x="48" y="128" type="curve"/>
      <point x="35" y="93"/>
      <point x="30" y="67"/>
      <point x="30" y="35" type="curve"/>
      <point x="84" y="5"/>
      <point x="150" y="-11"/>
      <point x="221" y="-11" type="curve" smooth="yes"/>
    </contour>
  </outline>
</glyph>
<glyph name="H" format="1">
  <advance width="574"/>
  <unicode hex="0048"/>
  <outline>
    <contour>
      <point x="160" y="-6"/>
      <point x="185" y="-4"/>
      <point x="209" y="0" type="curve"/>
      <point x="198" y="29"/>
      <point x="193" y="100"/>
      <point x="193" y="221" type="curve"/>
      <point x="215" y="222"/>
      <point x="240" y="223"/>
      <point x="269" y="223" type="curve" smooth="yes"/>
      <point x="304" y="223"/>
      <point x="344" y="222"/>
      <point x="380" y="221" type="curve"/>
      <point x="378" y="139"/>
      <point x="374" y="52"/>
      <point x="370" y="0" type="curve"/>
      <point x="402" y="-4"/>
      <point x="431" y="-6"/>
      <point x="456" y="-6" type="curve" smooth="yes"/>
      <point x="480" y="-6"/>
      <point x="505" y="-4"/>
      <point x="529" y="0" type="curve"/>
      <point x="519" y="30"/>
      <point x="513" y="114"/>
      <point x="513" y="237" type="curve" smooth="yes"/>
      <point x="513" y="330"/>
      <point x="518" y="453"/>
      <point x="524" y="527" type="curve"/>
      <point x="495" y="531"/>
      <point x="470" y="533"/>
      <point x="448" y="533" type="curve" smooth="yes"/>
      <point x="419" y="533"/>
      <point x="390" y="531"/>
      <point x="365" y="527" type="curve"/>
      <point x="376" y="498"/>
      <point x="381" y="427"/>
      <point x="381" y="305" type="curve"/>
      <point x="362" y="304"/>
      <point x="341" y="304"/>
      <point x="317" y="304" type="curve" smooth="yes"/>
      <point x="274" y="304"/>
      <point x="231" y="305"/>
      <point x="194" y="306" type="curve"/>
      <point x="196" y="388"/>
      <point x="200" y="475"/>
      <point x="204" y="527" type="curve"/>
      <point x="175" y="531"/>
      <point x="150" y="533"/>
      <point x="128" y="533" type="curve" smooth="yes"/>
      <point x="99" y="533"/>
      <point x="70" y="531"/>
      <point x="45" y="527" type="curve"/>
      <point x="55" y="497"/>
      <point x="61" y="413"/>
      <point x="61" y="290" type="curve" smooth="yes"/>
      <point x="61" y="197"/>
      <point x="56" y="74"/>
      <point x="50" y="0" type="curve"/>
      <point x="82" y="-4"/>
      <point x="111" y="-6"/>
      <point x="136" y="-6" type="curve" smooth="yes"/>
    </contour>
    <contour>
      <point x="287" y="0" type="move" name="bottom"/>
    </contour>
    <contour>
      <point x="287" y="527" type="move" name="top"/>
    </contour>
    <contour>
      <point x="15" y="527" type="move" name="topleft"/>
    </contour>
    <contour>
      <point x="287" y="414" type="move" name="center"/>
    </contour>
  </outline>
</glyph>
<glyph name="I" format="1">
  <advance width="254"/>
  <unicode hex="0049"/>
  <outline>
    <contour>
      <point x="160" y="-6"/>
      <point x="185" y="-4"/>
      <point x="209" y="0" type="curve"/>
      <point x="198" y="29"/>
      <point x="193" y="102"/>
      <point x="193" y="227" type="curve" smooth="yes"/>
      <point x="193" y="325"/>
      <point x="198" y="457"/>
      <point x="204" y="527" type="curve"/>
      <point x="175" y="531"/>
      <point x="150" y="533"/>
      <point x="128" y="533" type="curve" smooth="yes"/>
      <point x="99" y="533"/>
      <point x="70" y="531"/>
      <point x="45" y="527" type="curve"/>
      <point x="55" y="497"/>
      <point x="61" y="413"/>
      <point x="61" y="290" type="curve" smooth="yes"/>
      <point x="61" y="197"/>
      <point x="55" y="74"/>
      <point x="50" y="0" type="curve"/>
      <point x="82" y="-4"/>
      <point x="111" y="-6"/>
      <point x="136" y="-6" type="curve" smooth="yes"/>
    </contour>
    <contour>
      <point x="209" y="0" type="move" name="ogonek"/>
    </contour>
    <contour>
      <point x="127" y="527" type="move" name="top"/>
    </contour>
    <contour>
      <point x="20" y="527" type="move" name="topleft"/>
    </contour>
    <contour>
      <point x="127" y="0" type="move" name="bottom"/>
    </contour>
  </outline>
</glyph>
<glyph name="M" format="1">
  <advance width="713"/>
  <unicode hex="004D"/>
  <outline>
    <contour>
      <point x="114" y="-6"/>
      <point x="133" y="-4"/>
      <point x="151" y="0" type="curve"/>
      <point x="144" y="30"/>
      <point x="140" y="107"/>
      <point x="140" y="227" type="curve" smooth="yes"/>
      <point x="140" y="260"/>
      <point x="140" y="295"/>
      <point x="141" y="330" type="curve"/>
      <point x="198" y="209"/>
      <point x="262" y="68"/>
      <point x="291" y="0" type="curve"/>
      <point x="301" y="-3"/>
      <point x="310" y="-5"/>
      <point x="320" y="-5" type="curve" smooth="yes"/>
      <point x="330" y="-5"/>
      <point x="340" y="-3"/>
      <point x="350" y="0" type="curve"/>
      <point x="382" y="76"/>
      <point x="457" y="242"/>
      <point x="519" y="370" type="curve"/>
      <point x="520" y="349"/>
      <point x="520" y="325"/>
      <point x="520" y="300" type="curve" smooth="yes"/>
      <point x="520" y="196"/>
      <point x="515" y="66"/>
      <point x="509" y="0" type="curve"/>
      <point x="538" y="-4"/>
      <point x="563" y="-6"/>
      <point x="585" y="-6" type="curve" smooth="yes"/>
      <point x="612" y="-6"/>
      <point x="641" y="-4"/>
      <point x="668" y="0" type="curve"/>
      <point x="657" y="30"/>
      <point x="652" y="107"/>
      <point x="652" y="227" type="curve" smooth="yes"/>
      <point x="652" y="331"/>
      <point x="657" y="461"/>
      <point x="663" y="527" type="curve"/>
      <point x="631" y="531"/>
      <point x="602" y="533"/>
      <point x="577" y="533" type="curve" smooth="yes"/>
      <point x="553" y="533"/>
      <point x="524" y="531"/>
      <point x="504" y="527" type="curve"/>
      <point x="475" y="458"/>
      <point x="405" y="303"/>
      <point x="350" y="189" type="curve"/>
      <point x="297" y="299"/>
      <point x="226" y="457"/>
      <point x="197" y="527" type="curve"/>
      <point x="171" y="531"/>
      <point x="139" y="533"/>
      <point x="116" y="533" type="curve" smooth="yes"/>
      <point x="92" y="533"/>
      <point x="68" y="531"/>
      <point x="45" y="527" type="curve"/>
      <point x="54" y="457"/>
      <point x="57" y="382"/>
      <point x="57" y="290" type="curve" smooth="yes"/>
      <point x="57" y="189"/>
      <point x="54" y="64"/>
      <point x="49" y="0" type="curve"/>
      <point x="67" y="-4"/>
      <point x="83" y="-6"/>
      <point x="96" y="-6" type="curve" smooth="yes"/>
    </contour>
  </outline>
</glyph>
<glyph name="V" format="1">
  <advance width="538"/>
  <unicode hex="0056"/>
  <outline>
    <contour>
      <point x="370" y="27" type="line"/>
      <point x="411" y="168"/>
      <point x="489" y="409"/>
      <point x="533" y="533" type="curve"/>
      <point x="489" y="533"/>
      <point x="456" y="530"/>
      <point x="420" y="522" type="curve"/>
      <point x="432" y="489"/>
      <point x="398" y="360"/>
      <point x="311" y="96" type="curve"/>
      <point x="292" y="130"/>
      <point x="270" y="181"/>
      <point x="243" y="260" type="curve" smooth="yes"/>
      <point x="212" y="350"/>
      <point x="184" y="471"/>
      <point x="174" y="533" type="curve"/>
      <point x="107" y="533"/>
      <point x="56" y="526"/>
      <point x="5" y="512" type="curve"/>
      <point x="138" y="237"/>
      <point x="151" y="-9"/>
      <point x="256" y="-9" type="curve"/>
    </contour>
    <contour>
      <point x="269" y="527" type="move" name="top"/>
    </contour>
    <contour>
      <point x="269" y="0" type="move" name="bottom"/>
    </contour>
  </outline>
</glyph>
<glyph name="Z" format="1">
  <advance width="475"/>
  <unicode hex="005A"/>
  <outline>
    <contour>
      <point x="448" y="24"/>
      <point x="456" y="98"/>
      <point x="456" y="143" type="curve"/>
      <point x="410" y="126"/>
      <point x="334" y="117"/>
      <point x="268" y="117" type="curve" smooth="yes"/>
      <point x="240" y="117"/>
      <point x="210" y="119"/>
      <point x="185" y="121" type="curve"/>
      <point x="269" y="219"/>
      <point x="395" y="364"/>
      <point x="436" y="419" type="curve" smooth="yes"/>
      <point x="455" y="445"/>
      <point x="460" y="464"/>
      <point x="460" y="487" type="curve" smooth="yes"/>
      <point x="460" y="501"/>
      <point x="452" y="528"/>
      <point x="428" y="546" type="curve"/>
      <point x="393" y="525"/>
      <point x="339" y="516"/>
      <point x="238" y="516" type="curve" smooth="yes"/>
      <point x="145" y="516"/>
      <point x="64" y="520"/>
      <point x="26" y="527" type="curve"/>
      <point x="26" y="480"/>
      <point x="38" y="419"/>
      <point x="56" y="379" type="curve"/>
      <point x="79" y="392"/>
      <point x="111" y="397"/>
      <point x="163" y="397" type="curve" smooth="yes"/>
      <point x="219" y="397"/>
      <point x="279" y="395"/>
      <point x="327" y="394" type="curve"/>
      <point x="193" y="232"/>
      <point x="71" y="98"/>
      <point x="15" y="48" type="curve"/>
      <point x="15" y="0" type="line"/>
      <point x="96" y="5"/>
      <point x="373" y="5"/>
      <point x="436" y="-5" type="curve"/>
    </contour>
    <contour>
      <point x="238" y="527" type="move" name="top"/>
    </contour>
    <contour>
      <point x="238" y="0" type="move" name="bottom"/>
    </contour>
  </outline>
</glyph>
<glyph name="asciicircum" format="1">
  <advance width="404"/>
  <unicode hex="005E"/>
  <outline>
    <contour>
      <point x="201" y="488" type="line"/>
      <point x="312" y="349" type="line"/>
      <point x="344" y="368"/>
      <point x="365" y="387"/>
      <point x="394" y="424" type="curve"/>
      <point x="333" y="482"/>
      <point x="284" y="535"/>
      <point x="224" y="607" type="curve"/>
      <point x="180" y="607" type="line"/>
      <point x="120" y="535"/>
      <point x="71" y="482"/>
      <point x="10" y="424" type="curve"/>
      <point x="39" y="387"/>
      <point x="60" y="368"/>
      <point x="92" y="349" type="curve"/>
    </contour>
  </outline>
</glyph>
<glyph name="e" format="1">
  <advance width="470"/>
  <unicode hex="0065"/>
  <outline>
    <contour>
      <point x="299" y="-11"/>
      <point x="381" y="25"/>
      <point x="425" y="78" type="curve"/>
      <point x="409" y="144" type="line"/>
      <point x="371" y="118"/>
      <point x="319" y="104"/>
      <point x="261" y="104" type="curve" smooth="yes"/>
      <point x="208" y="104"/>
      <point x="177" y="123"/>
      <point x="165" y="166" type="curve"/>
      <point x="262" y="168"/>
      <point x="368" y="182"/>
      <point x="440" y="199" type="curve"/>
      <point x="440" y="343"/>
      <point x="378" y="418"/>
      <point x="260" y="418" type="curve" smooth="yes"/>
      <point x="121" y="418"/>
      <point x="25" y="325"/>
      <point x="25" y="191" type="curve" smooth="yes"/>
      <point x="25" y="61"/>
      <point x="95" y="-11"/>
      <point x="220" y="-11" type="curve" smooth="yes"/>
    </contour>
    <contour>
      <point x="160" y="276"/>
      <point x="180" y="326"/>
      <point x="213" y="349" type="curve"/>
      <point x="260" y="349"/>
      <point x="294" y="307"/>
      <point x="296" y="254" type="curve"/>
      <point x="262" y="239"/>
      <point x="209" y="226"/>
      <point x="159" y="221" type="curve"/>
    </contour>
    <contour>
      <point x="323" y="9" type="move" name="ogonek"/>
    </contour>
    <contour>
      <point x="228" y="0" type="move" name="bottom"/>
    </contour>
    <contour>
      <point x="238" y="407" type="move" name="top"/>
    </contour>
  </outline>
</glyph>
<glyph name="m" format="1">
  <advance width="751"/>
  <unicode hex="006D"/>
  <outline>
    <contour>
      <point x="180" y="-6"/>
      <point x="207" y="-4"/>
      <point x="226" y="0" type="curve"/>
      <point x="213" y="29"/>
      <point x="206" y="82"/>
      <point x="206" y="150" type="curve" smooth="yes"/>
      <point x="206" y="197"/>
      <point x="207" y="238"/>
      <point x="209" y="273" type="curve"/>
      <point x="223" y="284"/>
      <point x="238" y="290"/>
      <point x="261" y="290" type="curve" smooth="yes"/>
      <point x="302" y="290"/>
      <point x="319" y="268"/>
      <point x="319" y="215" type="curve" smooth="yes"/>
      <point x="319" y="139"/>
      <point x="316" y="56"/>
      <point x="312" y="0" type="curve"/>
      <point x="335" y="-4"/>
      <point x="362" y="-6"/>
      <point x="383" y="-6" type="curve" smooth="yes"/>
      <point x="412" y="-6"/>
      <point x="452" y="-4"/>
      <point x="471" y="0" type="curve"/>
      <point x="458" y="29"/>
      <point x="451" y="82"/>
      <point x="451" y="150" type="curve" smooth="yes"/>
      <point x="451" y="179"/>
      <point x="454" y="242"/>
      <point x="455" y="274" type="curve"/>
      <point x="469" y="285"/>
      <point x="484" y="290"/>
      <point x="506" y="290" type="curve" smooth="yes"/>
      <point x="547" y="290"/>
      <point x="564" y="268"/>
      <point x="564" y="215" type="curve" smooth="yes"/>
      <point x="564" y="139"/>
      <point x="561" y="56"/>
      <point x="557" y="0" type="curve"/>
      <point x="580" y="-4"/>
      <point x="607" y="-6"/>
      <point x="628" y="-6" type="curve" smooth="yes"/>
      <point x="657" y="-6"/>
      <point x="697" y="-4"/>
      <point x="716" y="0" type="curve"/>
      <point x="703" y="29"/>
      <point x="696" y="82"/>
      <point x="696" y="150" type="curve" smooth="yes"/>
      <point x="696" y="181"/>
      <point x="700" y="251"/>
      <point x="700" y="280" type="curve" smooth="yes"/>
      <point x="700" y="362"/>
      <point x="667" y="418"/>
      <point x="573" y="418" type="curve" smooth="yes"/>
      <point x="520" y="418"/>
      <point x="476" y="391"/>
      <point x="445" y="347" type="curve"/>
      <point x="429" y="391"/>
      <point x="393" y="418"/>
      <point x="328" y="418" type="curve" smooth="yes"/>
      <point x="279" y="418"/>
      <point x="239" y="395"/>
      <point x="208" y="357" type="curve"/>
      <point x="201" y="393"/>
      <point x="180" y="414"/>
      <point x="137" y="414" type="curve" smooth="yes"/>
      <point x="112" y="414"/>
      <point x="69" y="405"/>
      <point x="35" y="378" type="curve"/>
      <point x="66" y="344"/>
      <point x="74" y="321"/>
      <point x="74" y="213" type="curve" smooth="yes"/>
      <point x="74" y="139"/>
      <point x="71" y="57"/>
      <point x="67" y="0" type="curve"/>
      <point x="90" y="-4"/>
      <point x="131" y="-6"/>
      <point x="158" y="-6" type="curve" smooth="yes"/>
    </contour>
    <contour>
      <point x="376" y="407" type="move" name="top"/>
    </contour>
    <contour>
      <point x="376" y="0" type="move" name="bottom"/>
    </contour>
  </outline>
</glyph>
<glyph name="v" format="1">
  <advance width="454"/>
  <unicode hex="0076"/>
  <outline>
    <contour>
      <point x="324" y="27" type="line"/>
      <point x="355" y="140"/>
      <point x="404" y="304"/>
      <point x="449" y="413" type="curve"/>
      <point x="413" y="413"/>
      <point x="374" y="411"/>
      <point x="331" y="402" type="curve"/>
      <point x="345" y="370"/>
      <point x="333" y="318"/>
      <point x="267" y="102" type="curve"/>
      <point x="230" y="182"/>
      <point x="187" y="323"/>
      <point x="170" y="413" type="curve"/>
      <point x="109" y="413"/>
      <point x="50" y="408"/>
      <point x="5" y="392" type="curve"/>
      <point x="107" y="266"/>
      <point x="106" y="-9"/>
      <point x="220" y="-9" type="curve"/>
    </contour>
    <contour>
      <point x="227" y="407" type="move" name="top"/>
    </contour>
    <contour>
      <point x="227" y="0" type="move" name="bottom"/>
    </contour>
  </outline>
</glyph>
<glyph name="x" format="1">
  <advance width="467"/>
  <unicode hex="0078"/>
  <outline>
    <contour>
      <point x="42" y="-6"/>
      <point x="80" y="-5"/>
      <point x="128" y="0" type="curve"/>
      <point x="132" y="17"/>
      <point x="144" y="41"/>
      <point x="207" y="128" type="curve"/>
      <point x="241" y="78"/>
      <point x="272" y="30"/>
      <point x="293" y="-6" type="curve"/>
      <point x="360" y="-6"/>
      <point x="419" y="-1"/>
      <point x="464" y="15" type="curve"/>
      <point x="434" y="43"/>
      <point x="364" y="133"/>
      <point x="297" y="228" type="curve"/>
      <point x="342" y="288"/>
      <point x="400" y="361"/>
      <point x="446" y="413" type="curve"/>
      <point x="407" y="413"/>
      <point x="369" y="411"/>
      <point x="321" y="402" type="curve"/>
      <point x="317" y="387"/>
      <point x="307" y="365"/>
      <point x="253" y="291" type="curve"/>
      <point x="222" y="336"/>
      <point x="195" y="379"/>
      <point x="175" y="413" type="curve"/>
      <point x="108" y="413"/>
      <point x="49" y="408"/>
      <point x="5" y="392" type="curve"/>
      <point x="35" y="365"/>
      <point x="100" y="281"/>
      <point x="162" y="193" type="curve"/>
      <point x="116" y="131"/>
      <point x="54" y="50"/>
      <point x="3" y="-6" type="curve"/>
    </contour>
    <contour>
      <point x="235" y="407" type="move" name="top"/>
    </contour>
    <contour>
      <point x="235" y="0" type="move" name="bottom"/>
    </contour>
  </outline>
</glyph>
<glyph name="sterling" format="1">
  <advance width="518"/>
  <unicode hex="00A3"/>
  <outline>
    <contour>
      <point x="464" y="19"/>
      <point x="473" y="89"/>
      <point x="473" y="143" type="curve"/>
      <point x="432" y="127"/>
      <point x="361" y="117"/>
      <point x="292" y="117" type="curve" smooth="yes"/>
      <point x="258" y="117"/>
      <point x="220" y="118"/>
      <point x="188" y="120" type="curve"/>
      <point x="213" y="158"/>
      <point x="220" y="200"/>
      <point x="220" y="241" type="curve" smooth="yes"/>
      <point x="220" y="295"/>
      <point x="208" y="346"/>
      <point x="208" y="380" type="curve" smooth="yes"/>
      <point x="208" y="419"/>
      <point x="228" y="444"/>
      <point x="267" y="450" type="curve"/>
      <point x="321" y="436"/>
      <point x="360" y="414"/>
      <point x="415" y="368" type="curve"/>
      <point x="441" y="400"/>
      <point x="463" y="466"/>
      <point x="463" y="509" type="curve"/>
      <point x="414" y="525"/>
      <point x="346" y="533"/>
      <point x="272" y="533" type="curve" smooth="yes"/>
      <point x="147" y="533"/>
      <point x="65" y="475"/>
      <point x="65" y="387" type="curve" smooth="yes"/>
      <point x="65" y="291"/>
      <point x="110" y="229"/>
      <point x="110" y="168" type="curve" smooth="yes"/>
      <point x="110" y="130"/>
      <point x="93" y="93"/>
      <point x="35" y="48" type="curve"/>
      <point x="35" y="0" type="line"/>
      <point x="73" y="2"/>
      <point x="131" y="3"/>
      <point x="193" y="3" type="curve" smooth="yes"/>
      <point x="302" y="3"/>
      <point x="420" y="0"/>
      <point x="453" y="-5" type="curve"/>
    </contour>
    <component base="strokeshortcomb"/>
  </outline>
</glyph>
<glyph name="Thorn" format="1">
  <advance width="503"/>
  <unicode hex="00DE"/>
  <outline>
    <contour>
      <point x="160" y="-6"/>
      <point x="185" y="-4"/>
      <point x="209" y="0" type="curve"/>
      <point x="203" y="15"/>
      <point x="199" y="42"/>
      <point x="197" y="83" type="curve"/>
      <point x="213" y="81"/>
      <point x="230" y="80"/>
      <point x="248" y="80" type="curve" smooth="yes"/>
      <point x="387" y="80"/>
      <point x="483" y="160"/>
      <point x="483" y="276" type="curve" smooth="yes"/>
      <point x="483" y="389"/>
      <point x="403" y="452"/>
      <point x="258" y="452" type="curve" smooth="yes"/>
      <point x="238" y="452"/>
      <point x="218" y="451"/>
      <point x="199" y="449" type="curve"/>
      <point x="200" y="479"/>
      <point x="202" y="506"/>
      <point x="204" y="527" type="curve"/>
      <point x="175" y="531"/>
      <point x="150" y="533"/>
      <point x="128" y="533" type="curve" smooth="yes"/>
      <point x="99" y="533"/>
      <point x="70" y="531"/>
      <point x="45" y="527" type="curve"/>
      <point x="55" y="497"/>
      <point x="61" y="413"/>
      <point x="61" y="290" type="curve" smooth="yes"/>
      <point x="61" y="197"/>
      <point x="55" y="74"/>
      <point x="50" y="0" type="curve"/>
      <point x="82" y="-4"/>
      <point x="111" y="-6"/>
      <point x="136" y="-6" type="curve" smooth="yes"/>
    </contour>
    <contour>
      <point x="263" y="154"/>
      <point x="229" y="161"/>
      <point x="193" y="172" type="curve"/>
      <point x="191" y="245"/>
      <point x="191" y="291"/>
      <point x="195" y="359" type="curve"/>
      <point x="209" y="362"/>
      <point x="223" y="364"/>
      <point x="237" y="364" type="curve" smooth="yes"/>
      <point x="303" y="364"/>
      <point x="341" y="335"/>
      <point x="341" y="268" type="curve" smooth="yes"/>
      <point x="341" y="215"/>
      <point x="316" y="174"/>
      <point x="285" y="154" type="curve"/>
    </contour>
    <contour>
      <point x="252" y="527" type="move" name="top"/>
    </contour>
    <contour>
      <point x="252" y="0" type="move" name="bottom"/>
    </contour>
  </outline>
</glyph>
<glyph name="idotless" format="1">
  <advance width="247"/>
  <unicode hex="0131"/>
  <outline>
    <contour>
      <point x="160" y="-9"/>
      <point x="198" y="0"/>
      <point x="229" y="27" type="curve"/>
      <point x="198" y="61"/>
      <point x="190" y="84"/>
      <point x="190" y="192" type="curve" smooth="yes"/>
      <point x="190" y="294"/>
      <point x="195" y="379"/>
      <point x="202" y="417" type="curve"/>
      <point x="147" y="417"/>
      <point x="100" y="413"/>
      <point x="45" y="397" type="curve"/>
      <point x="58" y="376"/>
      <point x="64" y="322"/>
      <point x="64" y="272" type="curve" smooth="yes"/>
      <point x="64" y="208"/>
      <point x="60" y="144"/>
      <point x="60" y="73" type="curve" smooth="yes"/>
      <point x="60" y="10"/>
      <point x="82" y="-9"/>
      <point x="137" y="-9" type="curve" smooth="yes"/>
    </contour>
    <contour>
      <point x="182" y="0" type="move" name="ogonek"/>
    </contour>
    <contour>
      <point x="133" y="0" type="move" name="bottom"/>
    </contour>
    <contour>
      <point x="128" y="407" type="move" name="top"/>
    </contour>
  </outline>
</glyph>
<glyph name="dotlessj" format="1">
  <advance width="255"/>
  <unicode hex="0237"/>
  <outline>
    <contour>
      <point x="131" y="-111"/>
      <point x="201" y="-63"/>
      <point x="201" y="63" type="curve" smooth="yes"/>
      <point x="201" y="110"/>
      <point x="198" y="129"/>
      <point x="198" y="172" type="curve" smooth="yes"/>
      <point x="198" y="257"/>
      <point x="200" y="374"/>
      <point x="205" y="417" type="curve"/>
      <point x="150" y="417"/>
      <point x="103" y="413"/>
      <point x="48" y="397" type="curve"/>
      <point x="67" y="367"/>
      <point x="69" y="320"/>
      <point x="69" y="106" type="curve" smooth="yes"/>
      <point x="69" y="-42"/>
      <point x="36" y="-93"/>
      <point x="-30" y="-151" type="curve"/>
      <point x="-9" y="-189" type="line"/>
    </contour>
    <contour>
      <point x="135" y="407" type="move" name="top"/>
    </contour>
    <contour>
      <point x="135" y="0" type="move" name="bottom"/>
    </contour>
  </outline>
</glyph>
<glyph name="acutecomb" format="1">
  <advance width="234"/>
  <unicode hex="0301"/>
  <outline>
    <contour>
      <point x="92" y="467"/>
      <point x="189" y="511"/>
      <point x="234" y="569" type="curve"/>
      <point x="211" y="607"/>
      <point x="164" y="628"/>
      <point x="103" y="628" type="curve"/>
      <point x="99" y="577"/>
      <point x="53" y="516"/>
      <point x="0" y="492" type="curve"/>
      <point x="11" y="457" type="line"/>
    </contour>
    <contour>
      <point x="117" y="608" type="move" name="top"/>
    </contour>
    <contour>
      <point x="107" y="407" type="move" name="_top"/>
    </contour>
  </outline>
</glyph>
<glyph name="tildecomb" format="1">
  <advance width="293"/>
  <unicode hex="0303"/>
  <outline>
    <contour>
      <point x="65" y="605"/>
      <point x="266" y="341"/>
      <point x="294" y="589" type="curve"/>
      <point x="262" y="601" type="line"/>
      <point x="242" y="499"/>
      <point x="41" y="763"/>
      <point x="13" y="515" type="curve"/>
      <point x="45" y="503" type="line"/>
    </contour>
    <contour>
      <point x="154" y="607" type="move" name="top"/>
    </contour>
    <contour>
      <point x="154" y="407" type="move" name="_top"/>
    </contour>
  </outline>
</glyph>
<glyph name="brevecomb" format="1">
  <advance width="299"/>
  <unicode hex="0306"/>
  <outline>
    <contour>
      <point x="224" y="480"/>
      <point x="279" y="529"/>
      <point x="279" y="604" type="curve"/>
      <point x="262" y="613"/>
      <point x="241" y="617"/>
      <point x="216" y="617" type="curve"/>
      <point x="216" y="569"/>
      <point x="199" y="543"/>
      <point x="172" y="543" type="curve" smooth="yes"/>
      <point x="145" y="543"/>
      <point x="128" y="569"/>
      <point x="128" y="617" type="curve"/>
      <point x="82" y="617"/>
      <point x="50" y="612"/>
      <point x="20" y="599" type="curve"/>
      <point x="20" y="527"/>
      <point x="73" y="480"/>
      <point x="147" y="480" type="curve" smooth="yes"/>
    </contour>
    <contour>
      <point x="150" y="612" type="move" name="top"/>
    </contour>
    <contour>
      <point x="150" y="407" type="move" name="_top"/>
    </contour>
  </outline>
</glyph>
<glyph name="ringcomb" format="1">
  <advance width="251"/>
  <unicode hex="030A"/>
  <outline>
    <contour>
      <point x="179" y="455"/>
      <point x="225" y="495"/>
      <point x="225" y="551" type="curve" smooth="yes"/>
      <point x="225" y="604"/>
      <point x="189" y="639"/>
      <point x="132" y="639" type="curve" smooth="yes"/>
      <point x="70" y="639"/>
      <point x="25" y="599"/>
      <point x="25" y="542" type="curve" smooth="yes"/>
      <point x="25" y="490"/>
      <point x="62" y="455"/>
      <point x="116" y="455" type="curve" smooth="yes"/>
    </contour>
    <contour>
      <point x="108" y="504"/>
      <point x="97" y="520"/>
      <point x="97" y="545" type="curve" smooth="yes"/>
      <point x="97" y="572"/>
      <point x="110" y="590"/>
      <point x="129" y="590" type="curve"/>
      <point x="145" y="583"/>
      <point x="154" y="567"/>
      <point x="154" y="545" type="curve" smooth="yes"/>
      <point x="154" y="519"/>
      <point x="143" y="504"/>
      <point x="125" y="504" type="curve" smooth="yes"/>
    </contour>
    <contour>
      <point x="126" y="645" type="move" name="top"/>
    </contour>
    <contour>
      <point x="126" y="407" type="move" name="_top"/>
    </contour>
  </outline>
</glyph>
<glyph name="caroncomb" format="1">
  <advance width="298"/>
  <unicode hex="030C"/>
  <outline>
    <contour>
      <point x="136" y="477"/>
      <point x="177" y="480"/>
      <point x="209" y="490" type="curve"/>
      <point x="233" y="525"/>
      <point x="269" y="575"/>
      <point x="298" y="608" type="curve"/>
      <point x="262" y="614"/>
      <point x="244" y="616"/>
      <point x="215" y="616" type="curve"/>
      <point x="170" y="545" type="line"/>
      <point x="120" y="616" type="line"/>
      <point x="73" y="616"/>
      <point x="32" y="612"/>
      <point x="0" y="602" type="curve"/>
      <point x="16" y="587"/>
      <point x="67" y="515"/>
      <point x="89" y="477" type="curve"/>
    </contour>
    <contour>
      <point x="149" y="616" type="move" name="top"/>
    </contour>
    <contour>
      <point x="149" y="407" type="move" name="_top"/>
    </contour>
  </outline>
</glyph>
<glyph name="commaaccentcomb" format="1">
  <advance width="175"/>
  <unicode hex="0326"/>
  <outline>
    <contour>
      <point x="132" y="-215"/>
      <point x="160" y="-153"/>
      <point x="160" y="-65" type="curve"/>
      <point x="124" y="-40" type="line"/>
      <point x="84" y="-46"/>
      <point x="43" y="-64"/>
      <point x="15" y="-90" type="curve"/>
      <point x="35" y="-110"/>
      <point x="51" y="-147"/>
      <point x="51" y="-170" type="curve" smooth="yes"/>
      <point x="51" y="-197"/>
      <point x="45" y="-223"/>
      <point x="32" y="-244" type="curve"/>
      <point x="69" y="-273" type="line"/>
    </contour>
    <contour>
      <point x="87" y="0" type="move" name="_bottom"/>
    </contour>
    <contour>
      <point x="87" y="-276" type="move" name="bottom"/>
    </contour>
  </outline>
</glyph>
<glyph name="strokeshortcomb" format="1">
  <advance width="403"/>
  <unicode hex="0335"/>
  <outline>
    <contour>
      <point x="81" y="220"/>
      <point x="113" y="224"/>
      <point x="201" y="224" type="curve" smooth="yes"/>
      <point x="258" y="224"/>
      <point x="331" y="221"/>
      <point x="369" y="216" type="curve"/>
      <point x="371" y="233"/>
      <point x="373" y="251"/>
      <point x="373" y="266" type="curve" smooth="yes"/>
      <point x="373" y="282"/>
      <point x="371" y="299"/>
      <point x="369" y="315" type="curve"/>
      <point x="322" y="308"/>
      <point x="290" y="304"/>
      <point x="203" y="304" type="curve" smooth="yes"/>
      <point x="145" y="304"/>
      <point x="72" y="307"/>
      <point x="35" y="312" type="curve"/>
      <point x="32" y="295"/>
      <point x="30" y="277"/>
      <point x="30" y="262" type="curve" smooth="yes"/>
      <point x="30" y="246"/>
      <point x="32" y="229"/>
      <point x="35" y="213" type="curve"/>
    </contour>
    <contour>
      <point x="202" y="264" type="move" name="_center"/>
    </contour>
  </outline>
</glyph>
<glyph name="strokelongcomb" format="1">
  <advance width="627"/>
  <unicode hex="0336"/>
  <outline>
    <contour>
      <point x="122" y="183"/>
      <point x="167" y="187"/>
      <point x="304" y="187" type="curve" smooth="yes"/>
      <point x="399" y="187"/>
      <point x="518" y="184"/>
      <point x="581" y="180" type="curve"/>
      <point x="585" y="196"/>
      <point x="589" y="212"/>
      <point x="589" y="226" type="curve" smooth="yes"/>
      <point x="589" y="241"/>
      <point x="585" y="256"/>
      <point x="581" y="271" type="curve"/>
      <point x="510" y="265"/>
      <point x="460" y="262"/>
      <point x="325" y="262" type="curve" smooth="yes"/>
      <point x="228" y="262"/>
      <point x="112" y="264"/>
      <point x="47" y="269" type="curve"/>
      <point x="41" y="253"/>
      <point x="38" y="236"/>
      <point x="38" y="223" type="curve" smooth="yes"/>
      <point x="38" y="208"/>
      <point x="41" y="193"/>
      <point x="47" y="178" type="curve"/>
    </contour>
    <contour>
      <point x="314" y="224" type="move" name="_center"/>
    </contour>
  </outline>
</glyph>
<glyph name="slashlongcomb" format="1">
  <advance width="324"/>
  <unicode hex="0338"/>
  <outline>
    <contour>
      <point x="39" y="-100"/>
      <point x="61" y="-96"/>
      <point x="80" y="-91" type="curve"/>
      <point x="102" y="4"/>
      <point x="280" y="426"/>
      <point x="354" y="592" type="curve"/>
      <point x="336" y="597"/>
      <point x="320" y="601"/>
      <point x="305" y="601" type="curve" smooth="yes"/>
      <point x="285" y="601"/>
      <point x="263" y="597"/>
      <point x="244" y="592" type="curve"/>
      <point x="222" y="497"/>
      <point x="44" y="75"/>
      <point x="-30" y="-91" type="curve"/>
      <point x="-12" y="-96"/>
      <point x="4" y="-100"/>
      <point x="19" y="-100" type="curve" smooth="yes"/>
    </contour>
    <contour>
      <point x="162" y="251" type="move" name="_center"/>
    </contour>
  </outline>
</glyph>
<glyph name="Omega" format="1">
  <advance width="580"/>
  <unicode hex="03A9"/>
  <outline>
    <contour>
      <point x="100" y="-1"/>
      <point x="144" y="1"/>
      <point x="195" y="1" type="curve" smooth="yes"/>
      <point x="237" y="1" type="line"/>
      <point x="237" y="130" type="line"/>
      <point x="193" y="156"/>
      <point x="167" y="207"/>
      <point x="167" y="272" type="curve" smooth="yes"/>
      <point x="167" y="357"/>
      <point x="224" y="419"/>
      <point x="303" y="419" type="curve"/>
      <point x="369" y="403"/>
      <point x="413" y="343"/>
      <point x="413" y="271" type="curve" smooth="yes"/>
      <point x="413" y="206"/>
      <point x="387" y="156"/>
      <point x="343" y="131" type="curve"/>
      <point x="343" y="1" type="line"/>
      <point x="385" y="1" type="line" smooth="yes"/>
      <point x="436" y="1"/>
      <point x="480" y="-1"/>
      <point x="537" y="-3" type="curve"/>
      <point x="540" y="10"/>
      <point x="541" y="24"/>
      <point x="541" y="37" type="curve" smooth="yes"/>
      <point x="541" y="52"/>
      <point x="540" y="70"/>
      <point x="537" y="87" type="curve"/>
      <point x="491" y="76"/>
      <point x="454" y="67"/>
      <point x="415" y="64" type="curve"/>
      <point x="415" y="105" type="line"/>
      <point x="500" y="145"/>
      <point x="553" y="222"/>
      <point x="553" y="318" type="curve" smooth="yes"/>
      <point x="553" y="447"/>
      <point x="454" y="533"/>
      <point x="307" y="533" type="curve" smooth="yes"/>
      <point x="142" y="533"/>
      <point x="27" y="434"/>
      <point x="27" y="293" type="curve" smooth="yes"/>
      <point x="27" y="199"/>
      <point x="79" y="128"/>
      <point x="165" y="97" type="curve"/>
      <point x="165" y="64" type="line"/>
      <point x="126" y="67"/>
      <point x="89" y="76"/>
      <point x="43" y="87" type="curve"/>
      <point x="40" y="70"/>
      <point x="39" y="52"/>
      <point x="39" y="37" type="curve" smooth="yes"/>
      <point x="39" y="24"/>
      <point x="40" y="10"/>
      <point x="43" y="-3" type="curve"/>
    </contour>
  </outline>
</glyph>
<glyph name="mu" format="1">
  <advance width="494"/>
  <unicode hex="03BC"/>
  <outline>
    <contour>
      <point x="158" y="-177"/>
      <point x="194" y="-163"/>
      <point x="219" y="-141" type="curve"/>
      <point x="189" y="-103"/>
      <point x="182" y="-75"/>
      <point x="180" y="10" type="curve"/>
      <point x="198" y="2"/>
      <point x="210" y="0"/>
      <point x="232" y="0" type="curve" smooth="yes"/>
      <point x="263" y="0"/>
      <point x="298" y="15"/>
      <point x="314" y="35" type="curve"/>
      <point x="321" y="13"/>
      <point x="346" y="0"/>
      <point x="381" y="0" type="curve" smooth="yes"/>
      <point x="411" y="0"/>
      <point x="444" y="13"/>
      <point x="474" y="37" type="curve"/>
      <point x="445" y="57"/>
      <point x="435" y="82"/>
      <point x="435" y="132" type="curve" smooth="yes"/>
      <point x="435" y="171"/>
      <point x="441" y="319"/>
      <point x="447" y="417" type="curve"/>
      <point x="392" y="417"/>
      <point x="360" y="412"/>
      <point x="305" y="397" type="curve"/>
      <point x="305" y="127" type="line"/>
      <point x="286" y="114"/>
      <point x="262" y="107"/>
      <point x="234" y="107" type="curve" smooth="yes"/>
      <point x="196" y="107"/>
      <point x="180" y="124"/>
      <point x="180" y="163" type="curve" smooth="yes"/>
      <point x="180" y="417" type="line"/>
      <point x="123" y="417"/>
      <point x="79" y="411"/>
      <point x="35" y="397" type="curve"/>
      <point x="48" y="369"/>
      <point x="54" y="324"/>
      <point x="54" y="257" type="curve" smooth="yes"/>
      <point x="54" y="108"/>
      <point x="49" y="-11"/>
      <point x="49" y="-94" type="curve" smooth="yes"/>
      <point x="49" y="-150"/>
      <point x="75" y="-177"/>
      <point x="127" y="-177" type="curve" smooth="yes"/>
    </contour>
  </outline>
</glyph>
<glyph name="emdash" format="1">
  <advance width="764"/>
  <unicode hex="2014"/>
  <outline>
    <contour>
      <point x="121" y="128"/>
      <point x="261" y="137"/>
      <point x="394" y="137" type="curve" smooth="yes"/>
      <point x="501" y="137"/>
      <point x="609" y="136"/>
      <point x="729" y="132" type="curve"/>
      <point x="729" y="183"/>
      <point x="722" y="227"/>
      <point x="698" y="278" type="curve"/>
      <point x="641" y="268"/>
      <point x="500" y="259"/>
      <point x="369" y="259" type="curve" smooth="yes"/>
      <point x="261" y="259"/>
      <point x="154" y="260"/>
      <point x="35" y="264" type="curve"/>
      <point x="35" y="213"/>
      <point x="42" y="169"/>
      <point x="65" y="118" type="curve"/>
    </contour>
  </outline>
</glyph>
<glyph name="guilsinglleft" format="1">
  <advance width="278"/>
  <unicode hex="2039"/>
  <outline>
    <contour>
      <point x="205" y="53"/>
      <point x="227" y="77"/>
      <point x="248" y="113" type="curve"/>
      <point x="139" y="222" type="line"/>
      <point x="248" y="333" type="line"/>
      <point x="227" y="369"/>
      <point x="205" y="393"/>
      <point x="163" y="425" type="curve"/>
      <point x="119" y="360"/>
      <point x="76" y="309"/>
      <point x="20" y="245" type="curve"/>
      <point x="20" y="201" type="line"/>
      <point x="76" y="137"/>
      <point x="119" y="86"/>
      <point x="163" y="21" type="curve"/>
    </contour>
  </outline>
</glyph>
<glyph name="literSign" format="1">
  <advance width="286"/>
  <unicode hex="2113"/>
  <outline>
    <contour>
      <point x="220" y="-9"/>
      <point x="271" y="54"/>
      <point x="271" y="141" type="curve"/>
      <point x="241" y="141" type="line"/>
      <point x="241" y="104"/>
      <point x="224" y="70"/>
      <point x="206" y="60" type="curve"/>
      <point x="197" y="85"/>
      <point x="195" y="116"/>
      <point x="195" y="192" type="curve" smooth="yes"/>
      <point x="195" y="248" type="line"/>
      <point x="244" y="298"/>
      <point x="266" y="364"/>
      <point x="266" y="418" type="curve" smooth="yes"/>
      <point x="266" y="491"/>
      <point x="231" y="547"/>
      <point x="177" y="547" type="curve" smooth="yes"/>
      <point x="134" y="547"/>
      <point x="102" y="535"/>
      <point x="69" y="511" type="curve"/>
      <point x="69" y="317" type="line" smooth="yes"/>
      <point x="69" y="235"/>
      <point x="65" y="164"/>
      <point x="65" y="93" type="curve" smooth="yes"/>
      <point x="65" y="15"/>
      <point x="87" y="-9"/>
      <point x="142" y="-9" type="curve" smooth="yes"/>
    </contour>
    <contour>
      <point x="195" y="487" type="line"/>
      <point x="215" y="487"/>
      <point x="236" y="457"/>
      <point x="236" y="418" type="curve" smooth="yes"/>
      <point x="236" y="371"/>
      <point x="221" y="325"/>
      <point x="195" y="287" type="curve"/>
    </contour>
  </outline>
</glyph>
<glyph name="radical" format="1">
  <advance width="484"/>
  <unicode hex="221A"/>
  <outline>
    <contour>
      <point x="316" y="27" type="line"/>
      <point x="365" y="200"/>
      <point x="458" y="495"/>
      <point x="510" y="647" type="curve"/>
      <point x="466" y="647"/>
      <point x="433" y="644"/>
      <point x="397" y="636" type="curve"/>
      <point x="412" y="594"/>
      <point x="371" y="436"/>
      <point x="261" y="110" type="curve"/>
      <point x="241" y="158"/>
      <point x="225" y="227"/>
      <point x="202" y="331" type="curve"/>
      <point x="135" y="331"/>
      <point x="83" y="324"/>
      <point x="30" y="310" type="curve"/>
      <point x="121" y="142"/>
      <point x="115" y="-9"/>
      <point x="202" y="-9" type="curve"/>
    </contour>
  </outline>
</glyph>
<glyph name="lozenge" format="1">
  <advance width="506"/>
  <unicode hex="25CA"/>
  <outline>
    <contour>
      <point x="278" y="-8"/>
      <point x="303" y="-5"/>
      <point x="328" y="0" type="curve"/>
      <point x="367" y="88"/>
      <point x="417" y="176"/>
      <point x="476" y="264" type="curve"/>
      <point x="417" y="352"/>
      <point x="367" y="439"/>
      <point x="328" y="527" type="curve"/>
      <point x="303" y="532"/>
      <point x="278" y="535"/>
      <point x="253" y="535" type="curve" smooth="yes"/>
      <point x="228" y="535"/>
      <point x="203" y="532"/>
      <point x="178" y="527" type="curve"/>
      <point x="139" y="439"/>
      <point x="89" y="352"/>
      <point x="30" y="264" type="curve"/>
      <point x="89" y="176"/>
      <point x="139" y="88"/>
      <point x="178" y="0" type="curve"/>
      <point x="203" y="-5"/>
      <point x="228" y="-8"/>
      <point x="253" y="-8" type="curve" smooth="yes"/>
    </contour>
    <contour>
      <point x="160" y="264" type="line"/>
      <point x="253" y="429" type="line"/>
      <point x="346" y="264" type="line"/>
      <point x="253" y="98" type="line"/>
    </contour>
  </outline>
</glyph>
<glyph name="fl" format="1">
  <advance width="528"/>
  <unicode hex="FB02"/>
  <outline>
    <contour>
      <point x="173" y="-86"/>
      <point x="210" y="-30"/>
      <point x="210" y="63" type="curve" smooth="yes"/>
      <point x="210" y="107"/>
      <point x="203" y="176"/>
      <point x="203" y="284" type="curve" smooth="yes"/>
      <point x="203" y="323" type="line"/>
      <point x="241" y="322"/>
      <point x="269" y="318"/>
      <point x="292" y="311" type="curve"/>
      <point x="304" y="342"/>
      <point x="309" y="368"/>
      <point x="309" y="404" type="curve"/>
      <point x="286" y="400"/>
      <point x="250" y="397"/>
      <point x="205" y="396" type="curve"/>
      <point x="209" y="459"/>
      <point x="218" y="481"/>
      <point x="238" y="496" type="curve"/>
      <point x="267" y="491"/>
      <point x="294" y="480"/>
      <point x="338" y="458" type="curve"/>
      <point x="343" y="416"/>
      <point x="345" y="363"/>
      <point x="345" y="297" type="curve" smooth="yes"/>
      <point x="345" y="208"/>
      <point x="341" y="144"/>
      <point x="341" y="73" type="curve" smooth="yes"/>
      <point x="341" y="10"/>
      <point x="363" y="-9"/>
      <point x="418" y="-9" type="curve" smooth="yes"/>
      <point x="441" y="-9"/>
      <point x="479" y="0"/>
      <point x="510" y="27" type="curve"/>
      <point x="479" y="61"/>
      <point x="471" y="84"/>
      <point x="471" y="192" type="curve" smooth="yes"/>
      <point x="471" y="356"/>
      <point x="476" y="485"/>
      <point x="483" y="547" type="curve"/>
      <point x="422" y="572"/>
      <point x="347" y="585"/>
      <point x="265" y="585" type="curve" smooth="yes"/>
      <point x="165" y="585"/>
      <point x="89" y="517"/>
      <point x="70" y="411" type="curve"/>
      <point x="48" y="395"/>
      <point x="26" y="381"/>
      <point x="0" y="368" type="curve"/>
      <point x="0" y="329"/>
      <point x="10" y="321"/>
      <point x="70" y="320" type="curve"/>
      <point x="85" y="10"/>
      <point x="78" y="-54"/>
      <point x="31" y="-127" type="curve"/>
      <point x="67" y="-159" type="line"/>
    </contour>
  </outline>
</glyph>
<glyph name="five.dnom" format="1">
  <advance width="361"/>
  <outline>
    <contour>
      <point x="250" y="-6"/>
      <point x="295" y="26"/>
      <point x="295" y="84" type="curve" smooth="yes"/>
      <point x="295" y="126"/>
      <point x="260" y="165"/>
      <point x="197" y="165" type="curve" smooth="yes"/>
      <point x="167" y="165"/>
      <point x="139" y="157"/>
      <point x="117" y="142" type="curve"/>
      <point x="120" y="193" type="line"/>
      <point x="207" y="193" type="line" smooth="yes"/>
      <point x="235" y="193"/>
      <point x="253" y="190"/>
      <point x="266" y="184" type="curve"/>
      <point x="281" y="205"/>
      <point x="290" y="243"/>
      <point x="290" y="274" type="curve"/>
      <point x="270" y="270"/>
      <point x="232" y="268"/>
      <point x="189" y="268" type="curve" smooth="yes"/>
      <point x="131" y="268"/>
      <point x="99" y="270"/>
      <point x="86" y="274" type="curve"/>
      <point x="78" y="113" type="line"/>
      <point x="115" y="94" type="line"/>
      <point x="134" y="110"/>
      <point x="156" y="120"/>
      <point x="169" y="120" type="curve"/>
      <point x="190" y="112"/>
      <point x="197" y="99"/>
      <point x="197" y="86" type="curve" smooth="yes"/>
      <point x="197" y="64"/>
      <point x="179" y="51"/>
      <point x="150" y="51" type="curve" smooth="yes"/>
      <point x="116" y="51"/>
      <point x="86" y="63"/>
      <point x="69" y="82" type="curve"/>
      <point x="63" y="61"/>
      <point x="60" y="43"/>
      <point x="60" y="18" type="curve"/>
      <point x="91" y="3"/>
      <point x="127" y="-6"/>
      <point x="166" y="-6" type="curve" smooth="yes"/>
    </contour>
  </outline>
</glyph>
<glyph name="nine.dnom" format="1">
  <advance width="362"/>
  <outline>
    <contour>
      <point x="257" y="-6"/>
      <point x="322" y="54"/>
      <point x="322" y="146" type="curve" smooth="yes"/>
      <point x="322" y="227"/>
      <point x="267" y="277"/>
      <point x="179" y="277" type="curve" smooth="yes"/>
      <point x="99" y="277"/>
      <point x="44" y="234"/>
      <point x="44" y="172" type="curve" smooth="yes"/>
      <point x="44" y="121"/>
      <point x="86" y="86"/>
      <point x="149" y="86" type="curve" smooth="yes"/>
      <point x="175" y="86"/>
      <point x="201" y="94"/>
      <point x="224" y="110" type="curve"/>
      <point x="219" y="70"/>
      <point x="193" y="47"/>
      <point x="148" y="47" type="curve" smooth="yes"/>
      <point x="113" y="47"/>
      <point x="79" y="61"/>
      <point x="62" y="82" type="curve"/>
      <point x="53" y="59"/>
      <point x="48" y="36"/>
      <point x="48" y="18" type="curve"/>
      <point x="80" y="1"/>
      <point x="112" y="-6"/>
      <point x="157" y="-6" type="curve" smooth="yes"/>
    </contour>
    <contour>
      <point x="157" y="123"/>
      <point x="141" y="139"/>
      <point x="141" y="164" type="curve" smooth="yes"/>
      <point x="141" y="189"/>
      <point x="156" y="204"/>
      <point x="179" y="204" type="curve" smooth="yes"/>
      <point x="205" y="204"/>
      <point x="220" y="184"/>
      <point x="224" y="146" type="curve"/>
      <point x="212" y="137"/>
      <point x="198" y="129"/>
      <point x="182" y="123" type="curve"/>
    </contour>
  </outline>
</glyph>
